<svg width="615" height="352" viewBox="0 0 615 352" fill="none" xmlns="http://www.w3.org/2000/svg">
<path d="M88.3364 180.34C88.3364 180.34 125.305 175.375 125.305 176.728C125.305 177.202 124.088 183.201 121.798 191.546C102.776 184.244 88.3364 180.34 88.3364 180.34ZM614.456 91.428C612.203 85.1097 611.301 72.0202 605.891 64.3489C600.482 56.6746 592.816 51.7123 592.816 51.7123C592.816 51.7123 586.957 43.588 578.842 40.4289C570.726 37.2697 566.669 40.4289 566.669 40.4289C566.669 40.4289 551.792 33.6576 543.677 33.6576C535.562 33.6576 530.602 38.6228 530.602 38.6228L522.486 36.8168C522.486 36.8168 524.743 23.7302 515.276 21.0211C505.806 18.312 491.832 30.9515 491.832 30.9515C491.832 30.9515 473.797 30.0454 462.528 30.4984C451.257 30.9514 443.591 32.3045 443.591 32.3045C443.591 32.3045 431.421 29.1454 426.911 26.4363C422.404 23.7302 411.133 30.0454 405.723 30.9515C400.311 31.8515 391.746 35.9137 387.239 38.1728C382.729 40.4289 371.008 50.3563 367.403 56.2245C363.795 62.0898 334.039 33.8006 318.261 20.6395C302.482 7.48142 278.136 -1.54592 265.513 0.260149C252.89 2.06324 246.127 5.67544 238.011 6.57848C229.899 7.48152 223.135 12.8967 214.117 16.5088C205.103 20.118 194.281 29.1453 186.618 34.5606C178.954 39.9758 115.837 76.0824 92.8436 87.8159C69.8518 99.5524 12.596 123.472 4.48233 142.88C-3.63371 162.285 -2.28124 183.949 21.6132 196.586C34.0352 203.157 72.7417 212.268 110.928 222.493C107.416 230.218 103.32 237.3 98.706 242.172C82.025 259.774 89.6888 257.968 88.3364 266.543C86.9839 275.117 86.9839 283.241 79.3203 298.587C71.6553 313.933 61.737 324.763 61.737 324.763C61.737 324.763 53.9594 324.349 48.5239 330.646C42.7967 337.28 41.5931 349.586 41.5931 349.586H66.6956L84.2789 344.621C84.2789 344.621 81.4495 349.258 89.113 350.614C96.7766 351.967 112.23 349.586 112.23 349.586L123.05 346.88L125.809 343.98C125.809 343.98 130.264 352.596 135.223 350.188C140.182 347.78 147.395 346.427 147.395 346.427L165.373 350.519C165.373 350.519 162.867 334.61 149.65 327.922C143.287 324.703 130.714 322.96 130.714 322.96C130.714 322.96 122.149 314.836 123.05 301.746C123.953 288.657 135.223 260.224 140.632 252.1C142.884 248.72 148.739 242.283 155.38 235.407C172.626 241.043 186.851 246.825 194.281 252.553C212.403 266.516 206.419 289.652 208.387 285.482C221.435 257.843 201.218 234.582 173.873 217.019C176.498 214.512 178.742 212.42 180.306 211.028C188.422 203.807 193.379 192.976 193.379 192.976C193.379 192.976 217.273 187.108 221.783 188.011C226.291 188.914 246.579 202.004 246.579 202.004C246.579 202.004 255.144 246.685 257.85 250.294C260.553 253.906 290.372 273.794 290.372 273.794C290.372 273.794 292.113 283.694 296.62 285.047C301.128 286.4 310.118 291.378 311.949 290.463C313.777 289.548 309.145 282.896 309.145 282.896C309.145 282.896 321.44 288.248 323.22 287.756C324.998 287.262 322.318 279.632 319.612 276.473C316.909 273.314 307.502 266.093 307.502 266.093L299.133 264.227L277.237 243.526L282.194 228.63C282.194 228.63 306.087 239.01 317.811 241.719C329.532 244.429 351.172 245.332 351.172 245.332C351.172 245.332 351.621 263.833 353.875 267.446C356.132 271.055 373.714 273.314 373.714 273.314C373.714 273.314 375.959 283.217 377.772 283.241C379.582 283.265 381.231 274.044 381.231 274.044C381.231 274.044 385.113 272.47 386.998 278.887C388.9 285.36 391.416 280.21 391.943 278.887C393.086 276.029 393.092 270.554 388.09 263.252C384.622 258.189 367.796 256.812 367.796 256.812L379.123 230.436L394.452 228.18C394.452 228.18 412.484 243.526 412.937 253.906C413.386 264.286 406.173 295.428 421.049 305.358C435.928 315.286 451.707 315.286 451.707 315.286C451.707 315.286 467.036 328.825 468.387 327.922C469.742 327.019 473.228 322.221 473.228 322.221C473.228 322.221 480.111 340.109 486.422 344.621C492.734 349.136 549.539 347.33 549.539 347.33L546.833 341.012C546.833 341.012 557.696 346.4 571.221 345.95C584.745 345.497 606.344 344.621 606.344 344.621C606.344 344.621 599.13 331.534 593.269 330.631C587.407 329.728 585.01 328.465 585.01 328.465C585.01 328.465 585.153 320.251 575.686 320.701C566.219 321.154 550.944 318.257 550.944 318.257C550.944 318.257 540.072 312.577 535.562 307.161C531.054 301.746 525.192 295.428 515.276 291.366C505.356 287.303 487.774 283.241 487.774 283.241C487.774 283.241 462.528 270.605 457.569 263.383C452.609 256.162 449.453 241.269 446.747 235.851C444.044 230.436 439.084 211.931 439.084 211.931C439.084 211.931 462.528 211.931 471.543 211.931C480.56 211.931 506.258 213.737 512.117 217.799C517.979 221.862 542.775 232.242 548.637 235.851C554.496 239.463 570.277 240.366 577.038 238.11C583.802 235.851 593.718 234.498 595.522 230.889C597.326 227.277 599.58 215.993 599.131 214.64C598.678 213.287 589.66 203.357 585.153 201.551C580.646 199.748 582.9 193.879 580.193 193.426C577.49 192.976 575.237 197.489 575.237 197.489C575.237 197.489 578.392 189.817 574.784 188.464C571.179 187.108 568.023 191.623 568.023 191.623C568.023 191.623 559.455 184.402 560.807 183.949C562.161 183.499 581.548 176.728 584.251 171.762C586.957 166.8 581.096 171.312 566.219 169.056C551.34 166.8 543.677 150.102 543.677 150.102L533.308 143.33L534.659 127.082L536.916 122.119L543.227 129.791V122.119C543.227 122.119 552.694 132.95 554.496 132.047C556.3 131.144 554.496 122.119 554.496 122.119C554.496 122.119 562.611 127.135 564.865 127.108C567.121 127.082 564.865 118.057 564.865 118.057C564.865 118.057 574.784 128.941 577.038 125.079C579.291 121.216 577.038 112.189 577.038 112.189C577.038 112.189 586.505 118.057 587.859 116.251C589.211 114.445 587.859 106.774 587.859 106.774C587.859 106.774 599.13 107.224 600.032 106.774C600.932 106.321 600.032 100.905 600.032 100.905C600.032 100.905 608.597 106.321 609.949 104.518C611.301 102.712 616.713 97.7463 614.456 91.428Z" fill="#614FD0"/>
</svg>
